<?xml version="1.0" encoding="utf-8"?>
<!-- Generator: Adobe Illustrator 17.0.0, SVG Export Plug-In . SVG Version: 6.00 Build 0)  -->
<!DOCTYPE svg PUBLIC "-//W3C//DTD SVG 1.1//EN" "http://www.w3.org/Graphics/SVG/1.1/DTD/svg11.dtd">
<svg version="1.1" id="Layer_1" xmlns="http://www.w3.org/2000/svg" xmlns:xlink="http://www.w3.org/1999/xlink" x="0px" y="0px"
	 width="79.3px" height="92.1px" viewBox="0 0 79.3 92.1" style="enable-background:new 0 0 79.3 92.1;" xml:space="preserve">
<style type="text/css">
	.st0{fill:#A4B2CE;}
</style>
<g>
	<g>
		<path class="st0" d="M0.5,45.9c0-13.4,0-26.8,0-40.2C0.5,1.8,2.2,0,6.1,0c15,0,30,0,45,0c3.4,0,6.4,1.2,8.9,3.7
			c5.2,5.2,10.5,10.5,15.7,15.7c2.4,2.4,3.6,5.4,3.6,8.7c0,19.5,0,39,0,58.5c0,3.5-1.8,5.5-5.3,5.5c-22.7,0-45.5,0-68.2,0
			c-3.4,0-5.3-2-5.3-5.3C0.5,73.1,0.5,59.5,0.5,45.9z M72.9,32.8c-0.9,0-1.5,0-2.2,0c-6.1,0-12.2,0-18.3,0c-4,0-5.8-1.8-5.8-5.8
			c0-6.2-0.1-12.4,0-18.6c0-1.6-0.5-2.1-2.1-2c-1.1,0.1-2.3,0.1-3.5,0c-1,0-1.4,0.3-1.4,1.3c0.1,1.4,0.1,2.7,0,4.1
			c0,0.4-0.5,1-0.7,1c-1.8,0.1-3.7,0-5.6,0c0-1.7-0.1-3.2,0-4.6c0.1-1.5-0.5-1.9-1.9-1.8c-7.6,0.1-15.3,0.1-22.9,0
			c-1.6,0-1.9,0.5-1.9,2c0,25.1,0,50.2,0,75.2c0,1.6,0.5,2,2.1,2c20.7,0,41.4,0,62.1,0c1.5,0,2.1-0.4,2-2c-0.1-16.3,0-32.6,0-48.9
			C72.9,34.2,72.9,33.6,72.9,32.8z M72.6,26.2c-0.5-0.9-0.8-1.7-1.4-2.2C66,18.7,60.7,13.4,55.4,8.1C54.8,7.6,54,7.3,53,6.8
			c-0.1,0.9-0.1,1.4-0.1,1.9c0,5.3,0,10.6,0,15.9c0,1.4,0.4,1.8,1.8,1.8c5.4-0.1,10.7,0,16.1,0C71.2,26.3,71.7,26.3,72.6,26.2z"/>
		<path class="st0" d="M33.6,19.7c1.7,0,3.5-0.1,5.2,0c0.3,0,0.9,0.6,0.9,0.9c0.1,1.5,0.1,3,0,4.4c0,0.4-0.7,0.7-1.1,1.1
			c-0.1,0.1-0.2,0-0.3,0c-1.6-0.1-3.1-0.1-4.7-0.2C33.6,24,33.6,21.9,33.6,19.7z"/>
		<path class="st0" d="M33.1,16.4c-0.1,3.5,0.6,3.2-3.3,3.2c-3.5,0-3.1,0.4-3.1-3c0-4-0.4-3.4,3.4-3.4
			C33.7,13.1,33.1,12.7,33.1,16.4z"/>
		<path class="st0" d="M33.1,29.7c0,3.1,0,3.1-3.2,3.1c-3.6,0-3.2,0.7-3.2-3.2c0-3.2-0.7-3.3,3.3-3.2C33.7,26.4,33.1,26,33.1,29.7z"
			/>
	</g>
</g>
<g>
	<path class="st0" d="M55.5,54.3c0-1.1-0.9-2-2-2h-9.8c-1.1,0-2-0.9-2-2v-9.8c0-1.1-0.9-2-2-2h-5.9c-1.1,0-2,0.9-2,2v9.8
		c0,1.1-0.9,2-2,2H20c-1.1,0-2,0.9-2,2v5.9c0,1.1,0.9,2,2,2h9.8c1.1,0,2,0.9,2,2V74c0,1.1,0.9,2,2,2h5.9c1.1,0,2-0.9,2-2v-9.8
		c0-1.1,0.9-2,2-2h9.8c1.1,0,2-0.9,2-2V54.3z"/>
</g>
</svg>
